<svg xmlns="http://www.w3.org/2000/svg" viewBox="0 0 608.51807 138.76172">
  <title>gopractice-logo-black0</title>
  <g id="Layer_2" data-name="Layer 2">
    <g id="Layer_1-2" data-name="Layer 1">
      <g>
        <path d="M40.16113,61.76172C7.60059,61.76172,0,44.32129,0,31.76074V29.521C0,16.7207,7.04053,0,42.16113,0h3.12012C81.76221,0,86.72217,14.64062,87.042,22.96094v.07959H63.36182c-.40039-1.52-2.48-7.52-19.28077-7.52-16,0-20.56054,6.88037-20.56054,14.72021v.88037c0,7.6001,5.68017,15.04,20.40088,15.04,15.36035,0,20.32031-5.52,20.32031-7.43994H43.36133V27.12061H87.44238v33.521H73.12207a41.83865,41.83865,0,0,0-2.80029-8.24023c-2.31983,2.56006-9.76026,9.36035-28.3208,9.36035Z"/>
        <path d="M139.76807,0c38.40088,0,43.36084,18.3208,43.36084,29.521v2.3999c0,11.12012-4.88037,29.84082-43.36084,29.84082H136.168c-38.561,0-43.44141-18.7207-43.44141-29.84082V29.521C92.72656,18.3208,97.60693,0,136.168,0ZM159.6084,30.08105c0-6.32031-4.08008-14.08056-21.68067-14.08056-17.92041,0-21.68066,7.76025-21.68066,14.08056v.96c0,6.24023,4.08008,14.64013,21.68066,14.64013s21.68067-8.08008,21.68067-14.48Z"/>
        <path d="M24.7207,119.001V137.6416H2V78.12012H51.60156c22.00049,0,28.24024,8.72021,28.24024,19.68066v1.27979c0,10.80029-6.48,19.92041-28.24024,19.92041Zm0-14.88037H48.88135c5.20019,0,7.52-2.15967,7.52-5.43995v-.23974c0-3.44043-2.16016-5.44043-7.52-5.44043H24.7207Z"/>
        <path d="M107.68555,137.6416H84.96484V78.12012h54.08155c17.36035,0,25.04052,5.60009,25.04052,15.28027v.88037c0,8.64014-7.52,12.24024-12.00048,13.28028,7.36035,1.67968,12.24072,6.48,12.24072,14.16015v8.80029c0,4.16016.55957,5.68018,1.11963,6.72022v.3999h-23.2002c-.56006-.64014-.72021-1.43994-.72021-3.12012v-6.96c0-6.80029-3.12012-10.32031-12.08008-10.32031H107.68555Zm0-34.80078h26.08056c5.04,0,6.88037-2.24023,6.88037-5.12012v-.08008c0-2.7998-1.76025-5.04-6.88037-5.04H107.68555Z"/>
        <path d="M227.85156,128.0415H193.85107l-4.56,9.6001H166.25l29.44092-59.52148h30.56054l31.1211,59.52148H232.4917ZM210.57129,92.68066,200.811,113.16113h19.76025Z"/>
        <path d="M294.49756,138.76172c-36.56055,0-42.08106-18.64063-42.08106-29.9209V106.521C252.4165,95.16064,257.377,77,294.49756,77h3.12012c36.16064,0,41.44091,16.40039,41.44091,24.08057v1.04H315.458c-.48-1.6001-2.31983-9.12012-19.6001-9.12012-16.40039,0-19.9209,7.28027-19.9209,13.92041v.96c0,6.40039,4.00049,14.80029,20.00049,14.80029,17.52051,0,19.28076-8.3999,19.60059-9.76025h23.5205v1.28027c0,7.76026-5.60009,24.56055-41.44091,24.56055Z"/>
        <path d="M367.3042,94.36084H341.62354V78.12012h74.08154V94.36084H390.0249V137.6416H367.3042Z"/>
        <path d="M444.269,137.6416H421.62891V78.12012H444.269Z"/>
        <path d="M492.03125,138.76172c-36.56055,0-42.08105-18.64063-42.08105-29.9209V106.521c0-11.36036,4.96044-29.521,42.08105-29.521h3.12012c36.16113,0,41.44092,16.40039,41.44092,24.08057v1.04H512.9917c-.48-1.6001-2.31982-9.12012-19.6001-9.12012-16.40039,0-19.9209,7.28027-19.9209,13.92041v.96c0,6.40039,4.00049,14.80029,20.00049,14.80029,17.52051,0,19.28076-8.3999,19.60059-9.76025h23.52051v1.28027c0,7.76026-5.6001,24.56055-41.44092,24.56055Z"/>
        <path d="M607.87793,78.12012V92.68066H564.437v7.43995h42.561v14.48046H564.437v8.16016h44.08106V137.6416H542.03613V78.12012Z"/>
      </g>
    </g>
  </g>
</svg>
